<svg width="11" height="11" viewBox="0 0 11 11" fill="none" xmlns="http://www.w3.org/2000/svg">
<path d="M3.66667 1.375H2.29167C2.04855 1.375 1.81539 1.47158 1.64349 1.64349C1.47158 1.81539 1.375 2.04855 1.375 2.29167V3.66667M9.625 3.66667V2.29167C9.625 2.04855 9.52842 1.81539 9.35651 1.64349C9.18461 1.47158 8.95145 1.375 8.70833 1.375H7.33333M7.33333 9.625H8.70833C8.95145 9.625 9.18461 9.52842 9.35651 9.35651C9.52842 9.18461 9.625 8.95145 9.625 8.70833V7.33333M1.375 7.33333V8.70833C1.375 8.95145 1.47158 9.18461 1.64349 9.35651C1.81539 9.52842 2.04855 9.625 2.29167 9.625H3.66667" stroke="#536074" stroke-linecap="round" stroke-linejoin="round"/>
</svg>
