<svg width="11" height="11" viewBox="0 0 11 11" fill="none" xmlns="http://www.w3.org/2000/svg">
<path d="M4.71635 1.76917L0.834268 8.25C0.754228 8.38861 0.711878 8.54576 0.711429 8.70582C0.710981 8.86588 0.752451 9.02327 0.831713 9.16233C0.910975 9.30138 1.02527 9.41726 1.16322 9.49843C1.30117 9.57961 1.45797 9.62324 1.61802 9.625H9.38218C9.54223 9.62324 9.69903 9.57961 9.83698 9.49843C9.97493 9.41726 10.0892 9.30138 10.1685 9.16233C10.2478 9.02327 10.2892 8.86588 10.2888 8.70582C10.2883 8.54576 10.246 8.38861 10.1659 8.25L6.28385 1.76917C6.20214 1.63447 6.0871 1.5231 5.94982 1.44581C5.81253 1.36852 5.65765 1.32791 5.5001 1.32791C5.34256 1.32791 5.18767 1.36852 5.05039 1.44581C4.9131 1.5231 4.79806 1.63447 4.71635 1.76917Z" stroke="#536074" stroke-linecap="round" stroke-linejoin="round"/>
</svg>
